<svg width="35" height="35" viewBox="0 0 35 35" fill="none" xmlns="http://www.w3.org/2000/svg">
<path d="M1.25877 0.188421C0.558571 0.188421 0.165389 1.04584 0 2.63435V7.90553C0.0591125 8.65815 0.247091 9.25081 0.443006 9.25081H0.813282C1.29881 9.25081 1.38854 9.97959 1.46451 11.675L1.56173 13.8639L1.68031 16.5005L1.71052 17.4533C1.88917 21.4283 2.43931 22.896 3.46537 22.896H4.68581C4.8787 22.896 5.01181 22.3457 5.00937 21.6146C5.00878 21.5384 5.00662 21.4591 5.0036 21.3838L4.79713 16.3512L4.68576 13.8639L4.4251 8.05481C4.20443 3.1247 3.56921 0.188601 2.15195 0.188601H1.25877V0.188421ZM6.85011 0.188421C5.87893 0.188421 5.50017 1.83618 5.49625 4.78225C5.49499 5.46423 5.51428 6.21222 5.55085 7.02338L5.58859 7.87919C5.64347 8.64338 5.8351 9.25064 6.03394 9.25064H8.28563C9.47798 9.25064 9.93587 11.5348 10.0997 15.2098L10.2603 18.8185C10.3014 19.7206 10.3304 20.5664 10.3309 21.3191C10.3345 23.5863 10.0898 25.0779 9.17922 25.0779H6.75529C6.56366 25.0779 6.42902 25.6375 6.43389 26.3616C6.43389 26.4354 6.43565 26.5139 6.43966 26.5924L6.50121 28.0047C6.72206 32.9327 7.40683 34.4765 8.59833 34.4765H15.1433C15.6642 34.4765 15.8683 33.6545 15.8689 32.5895C15.87 31.9038 15.7879 31.118 15.6524 30.3791C15.6025 30.1153 14.681 25.3183 14.681 25.3183C14.6499 25.1611 14.6049 25.0681 14.5603 25.0681H13.0975H13.0951C12.8769 25.0681 12.7019 24.7686 12.6023 24.2562C12.5462 23.9584 12.5172 23.6059 12.516 23.225C12.515 22.9225 12.5307 22.6031 12.564 22.2699C12.5833 22.0936 12.972 18.2403 13.0592 17.406L13.0641 17.1658V17.1565L13.038 16.9133C12.8793 16.0892 12.0907 11.9739 12.059 11.8046C11.9688 11.3329 11.9352 10.9756 11.9352 10.647C11.9362 10.4493 11.9492 10.2607 11.9694 10.0652C12.0213 9.5419 12.1734 9.25099 12.3916 9.25099H14.0213C14.0678 9.25099 14.0973 9.11559 14.0961 8.94852C14.0961 8.91311 14.0937 8.87006 14.0907 8.82931C13.5788 3.77146 12.3816 0.188778 10.5965 0.188778H6.85011V0.188421ZM16.1341 0.188421C15.6123 0.188421 15.4064 1.02965 15.4052 2.10093C15.404 2.78665 15.4867 3.56791 15.624 4.28513C15.7569 4.96853 16.527 9.00136 16.527 9.00136C16.5553 9.14833 16.6025 9.25064 16.6456 9.25064H18.8731C19.0914 9.25064 19.2692 9.53229 19.3689 10.0648C19.4262 10.3603 19.4553 10.7128 19.4561 11.0946C19.4561 11.3918 19.44 11.7111 19.4068 12.0398C19.3898 12.1807 18.9139 16.8822 18.9108 16.9007C18.9059 16.9631 18.9042 17.0268 18.9047 17.0916C18.9053 17.2008 18.916 17.3156 18.935 17.4056C18.935 17.4056 19.8354 22.1218 19.8639 22.2695C19.971 22.8321 20.0254 23.3723 20.0241 23.8249C20.0235 23.9751 20.0172 24.1158 20.0042 24.2436C19.95 24.7685 19.8002 25.0679 19.5796 25.0679H17.5627C17.5179 25.0679 17.48 25.161 17.4652 25.3088C17.4652 25.3088 17.0272 29.6957 16.9585 30.3791C16.9181 30.7793 16.8966 31.2011 16.8966 31.615C16.896 33.0943 17.1691 34.4765 17.8373 34.4765H18.4893H20.0301C22.1256 34.4765 23.2898 30.5777 23.2857 22.606C23.285 21.2146 23.2484 19.6999 23.1755 18.0629L23.1064 16.5206C22.5309 3.64175 20.4376 0.188601 18.4778 0.188601H16.1341V0.188421ZM30.2624 0C28.9609 0 27.989 1.39617 27.8661 6.96965C27.855 7.68383 27.7772 8.01495 27.6851 8.01495C27.5781 8.01495 27.4534 7.57014 27.3922 6.75507C27.0649 2.42529 26.337 0.188601 25.1097 0.188601H24.5401C23.5718 0.188601 23.1936 1.83636 23.1878 4.78242C23.1866 5.46441 23.2053 6.2124 23.2418 7.02356C23.2418 7.02356 23.256 7.29756 23.2792 7.87937C23.3171 8.7174 23.5217 9.34618 23.8172 9.34618C24.3438 9.34618 24.4883 9.98955 24.5712 11.8967L25.5193 32.9975C25.5711 33.7832 25.7632 34.412 25.9673 34.412H27.3963C28.2277 34.412 28.6754 33.7593 28.672 31.0611C28.6714 30.62 28.6584 30.1252 28.6336 29.5673L28.0462 16.3699C28.0181 15.7511 28.005 15.1647 28.0044 14.6166C28.002 11.2612 28.4862 9.25081 29.1648 9.25081H29.5743C30.6146 9.25081 31.1437 11.0948 31.3401 15.4908L31.4922 18.9418C31.5264 19.7021 31.5474 20.4019 31.5486 21.0383C31.5529 23.5372 31.2551 25.0211 30.2783 25.0211H29.7852C29.5924 25.0211 29.4587 25.58 29.4627 26.3048C29.4627 26.3833 29.4644 26.4571 29.4681 26.5358L29.4916 27.0667C29.7424 32.642 30.3852 35 31.8359 35H32.1655C33.8263 35 35.0035 31.4104 35 23.9989C34.9994 22.8647 34.9708 21.6409 34.9122 20.3264L34.6704 14.8905C34.1444 3.15389 32.424 0 30.582 0H30.2624V0Z" fill="url(#paint0_radial_33_575)"/>
<defs>
<radialGradient id="paint0_radial_33_575" cx="0" cy="0" r="1" gradientUnits="userSpaceOnUse" gradientTransform="translate(17.4521 17.5555) rotate(90) scale(50.5214 12.8032)">
<stop stop-color="#00ACED"/>
<stop offset="1" stop-color="#004975"/>
</radialGradient>
</defs>
</svg>
