<svg width="20" height="20" viewBox="0 0 20 20" fill="none" xmlns="http://www.w3.org/2000/svg">
<path d="M8.33333 11.1111H0.555556C0.222222 11.1111 0 11.3333 0 11.6667V19.4444C0 19.7778 0.222222 20 0.555556 20H8.33333C8.66667 20 8.88889 19.7778 8.88889 19.4444V11.6667C8.88889 11.3333 8.66667 11.1111 8.33333 11.1111ZM7.77778 18.8889H1.11111V12.2222H7.77778V18.8889ZM8.33333 0H0.555556C0.222222 0 0 0.222222 0 0.555556V8.33333C0 8.66667 0.222222 8.88889 0.555556 8.88889H8.33333C8.66667 8.88889 8.88889 8.66667 8.88889 8.33333V0.555556C8.88889 0.222222 8.66667 0 8.33333 0ZM7.77778 7.77778H1.11111V1.11111H7.77778V7.77778ZM19.4444 0H11.6667C11.3333 0 11.1111 0.222222 11.1111 0.555556V8.33333C11.1111 8.66667 11.3333 8.88889 11.6667 8.88889H19.4444C19.7778 8.88889 20 8.66667 20 8.33333V0.555556C20 0.222222 19.7778 0 19.4444 0ZM18.8889 7.77778H12.2222V1.11111H18.8889V7.77778ZM19.4444 15H16.1111V11.6667C16.1111 11.3333 15.8889 11.1111 15.5556 11.1111C15.2222 11.1111 15 11.3333 15 11.6667V15H11.6667C11.3333 15 11.1111 15.2222 11.1111 15.5556C11.1111 15.8889 11.3333 16.1111 11.6667 16.1111H15V19.4444C15 19.7778 15.2222 20 15.5556 20C15.8889 20 16.1111 19.7778 16.1111 19.4444V16.1111H19.4444C19.7778 16.1111 20 15.8889 20 15.5556C20 15.2222 19.7778 15 19.4444 15Z" fill="black"/>
</svg>
