<svg width="20" height="20" viewBox="0 0 20 20" fill="none" xmlns="http://www.w3.org/2000/svg">
<g clip-path="url(#clip0_38_104)">
<path d="M17.5984 0.100569C17.5328 0.210283 17.4625 0.402285 17.3891 0.667427C17.3625 0.765713 17.3266 0.870855 17.3094 0.902855C17.2922 0.934855 17.2141 1.01028 17.1344 1.06743C17.0062 1.16114 16.9766 1.17486 16.8391 1.19086C16.7562 1.20228 16.6406 1.22743 16.5812 1.24571C16.5234 1.26628 16.4531 1.28 16.4234 1.28C16.3953 1.28 16.3578 1.296 16.3422 1.31657C16.3031 1.36686 16.3047 1.33714 16.3437 1.25714C16.375 1.19314 16.3719 1.16571 16.3328 1.16571C16.3047 1.16571 16.1562 1.36914 16.1562 1.40571C16.1562 1.44457 16.1047 1.50857 16.0734 1.50857C16.0594 1.50857 16.0469 1.52457 16.0469 1.54514C16.0469 1.56571 16.025 1.632 15.9984 1.69371L15.9484 1.80343L15.9078 1.76228C15.8672 1.72114 15.7781 1.664 15.6406 1.59314C15.6016 1.57486 15.5453 1.54514 15.5156 1.52914C15.4859 1.51543 15.4453 1.49028 15.425 1.47886C15.4 1.46057 15.3844 1.46286 15.3719 1.48114C15.35 1.51314 15.3937 1.59314 15.4437 1.60914C15.4609 1.61371 15.4453 1.616 15.4062 1.616C15.3406 1.61143 15.3359 1.61371 15.3406 1.66857C15.3453 1.72571 15.2953 1.81943 15.2172 1.90171C15.1844 1.93371 15.1812 1.94514 15.2 1.98857C15.225 2.048 15.2234 2.05257 15.1641 2.064C15.1297 2.06857 15.1156 2.08685 15.1125 2.12114C15.1078 2.16457 15.0969 2.17143 15.0234 2.17143C14.975 2.17143 14.9375 2.18286 14.9344 2.19657C14.9297 2.21714 14.9141 2.21714 14.875 2.19886C14.7703 2.15314 14.7031 2.144 14.6953 2.176C14.6891 2.19657 14.6656 2.20343 14.625 2.19886C14.5906 2.19428 14.5625 2.19886 14.5625 2.21257C14.5625 2.224 14.5859 2.272 14.6141 2.31771C14.6562 2.384 14.7156 2.56 14.6953 2.56C14.6937 2.56 14.6656 2.544 14.6344 2.52571C14.5719 2.48686 14.5437 2.496 14.55 2.55543C14.5531 2.58286 14.5453 2.592 14.5266 2.58743C14.5109 2.58286 14.4891 2.592 14.4766 2.60571C14.4609 2.624 14.4391 2.61485 14.3859 2.57143C14.3469 2.53943 14.3062 2.51428 14.2984 2.51428C14.2656 2.51428 14.2812 2.60343 14.3219 2.64914L14.3641 2.69714H14.3141C14.2547 2.69714 14.2531 2.73143 14.3094 2.81828L14.3516 2.88457L14.2812 2.87543C14.2125 2.86857 14.2109 2.87086 14.2156 2.93028C14.2187 2.98514 14.2141 2.99428 14.1797 2.99428C14.1172 2.99428 14.1344 3.06743 14.2 3.088C14.325 3.12457 14.2969 3.2 14.1406 3.24343C14.025 3.27771 14.0141 3.328 14.1172 3.35085C14.1562 3.35771 14.1875 3.37371 14.1875 3.38286C14.1875 3.39428 14.1562 3.42857 14.1172 3.46057C14.0406 3.52686 14.0266 3.58171 14.0828 3.59314C14.1422 3.60457 14.1203 3.664 14.0234 3.75086C13.9344 3.82857 13.9297 3.84 13.9297 3.92229C13.9297 3.98628 13.9141 4.04114 13.8781 4.11428C13.8344 4.20114 13.8297 4.21943 13.85 4.24C13.8656 4.25828 13.8687 4.27657 13.8578 4.29943C13.8375 4.34743 13.8406 4.38857 13.8687 4.40457C13.8844 4.41371 13.9172 4.384 13.9625 4.31771C14 4.26514 14.0344 4.22628 14.0406 4.23314C14.0516 4.25143 13.9703 4.42743 13.9203 4.49371C13.9 4.52114 13.8625 4.55314 13.8375 4.56457C13.7781 4.592 13.7687 4.63314 13.8156 4.66057C13.8453 4.67886 13.8375 4.68343 13.7719 4.68343C13.6797 4.68571 13.6672 4.69714 13.6906 4.75428C13.7172 4.816 13.6812 4.87086 13.625 4.85486C13.5906 4.84343 13.5797 4.85028 13.5703 4.88914C13.5656 4.91657 13.5516 4.93714 13.5422 4.93714C13.5312 4.93714 13.5047 4.96686 13.4828 5.00343C13.4453 5.06743 13.3156 5.14286 13.2453 5.14286C13.2266 5.14286 13.2187 5.15657 13.2219 5.18171C13.225 5.21371 13.2469 5.22514 13.3047 5.23428C13.3844 5.24571 13.3859 5.26171 13.3094 5.28914C13.2562 5.30743 13.2062 5.408 13.2312 5.44457C13.2453 5.46514 13.2594 5.46286 13.2906 5.44228C13.3453 5.408 13.3531 5.42171 13.3187 5.49714C13.2875 5.56571 13.2547 5.59314 13.0844 5.69143C13.0156 5.73028 12.8234 5.85371 12.6562 5.96571C12.3172 6.18971 12.2109 6.24686 12.0156 6.30857C11.7734 6.38628 11.5547 6.40686 11.0734 6.39314C10.5172 6.37943 10.1953 6.32914 9.65624 6.17143C8.69374 5.89028 8.15155 5.83771 7.60155 5.97714C6.93749 6.14171 6.52968 6.38857 5.89061 7.008C5.68593 7.20686 5.62811 7.25028 5.52343 7.29371C5.30468 7.37828 5.15311 7.45371 5.07655 7.50857C4.99061 7.57257 4.81874 7.856 4.74843 8.048C4.72186 8.11886 4.65624 8.24686 4.60311 8.33371C4.54843 8.42057 4.49061 8.53257 4.47186 8.58286C4.45468 8.63314 4.39061 8.752 4.33124 8.85028C4.26249 8.96 4.19374 9.10171 4.14686 9.23657C4.09843 9.37143 4.03436 9.50628 3.97186 9.60228C3.91874 9.68457 3.87499 9.76686 3.87499 9.78057C3.87499 9.80343 3.8453 9.82857 3.72968 9.89486C3.69686 9.91314 3.68749 9.93143 3.6953 9.96343C3.70155 9.99314 3.69218 10.0206 3.66405 10.0549C3.59686 10.1303 3.56718 10.1349 3.49218 10.0709C3.45468 10.0389 3.40936 10.0114 3.39218 10.0114C3.37186 10.0114 3.33749 9.96571 3.29374 9.87428C3.2328 9.74628 3.1828 9.69143 3.15936 9.72571C3.15311 9.73257 3.16093 9.77143 3.17499 9.808C3.19061 9.84457 3.19686 9.89257 3.19218 9.91314C3.18436 9.94057 3.20936 9.98857 3.2828 10.0846C3.36093 10.1897 3.37186 10.2126 3.33593 10.192C3.31093 10.176 3.26718 10.1394 3.23905 10.1097C3.21249 10.08 3.17655 10.0571 3.15936 10.0571C3.14218 10.0571 3.09061 10.0114 3.04374 9.95428C2.88593 9.76457 2.85624 9.85143 2.9953 10.0891C3.02343 10.1394 3.04686 10.1874 3.04686 10.1989C3.04686 10.2514 2.97968 10.2034 2.9078 10.1029C2.82343 9.984 2.79686 9.97486 2.79686 10.0709C2.79686 10.1166 2.78905 10.1257 2.74999 10.1257C2.71249 10.1257 2.68124 10.0937 2.60311 9.97943C2.54686 9.89943 2.4828 9.78971 2.45936 9.73943C2.41093 9.62971 2.38124 9.62971 2.38593 9.73714L2.38749 9.81257L2.34999 9.75086C2.32811 9.71886 2.29999 9.69143 2.28749 9.69143C2.27343 9.69143 2.2453 9.67086 2.22343 9.64571C2.14999 9.56114 2.11561 9.60228 2.16561 9.71428C2.17811 9.74628 2.16405 9.73028 2.13436 9.68228C2.10311 9.632 2.07811 9.57943 2.07811 9.56114C2.07811 9.54514 2.06405 9.53143 2.04843 9.53143C2.03124 9.53143 1.9828 9.472 1.93749 9.392C1.87811 9.29371 1.8453 9.25714 1.82186 9.26171C1.79686 9.26628 1.79061 9.28228 1.79374 9.32571C1.79686 9.35771 1.80936 9.39886 1.82186 9.41943C1.87811 9.51086 1.81249 9.51086 1.73905 9.41714C1.67655 9.33714 1.65624 9.33029 1.65624 9.39429C1.65624 9.41943 1.69061 9.49028 1.7328 9.54971C1.82655 9.68 1.95311 9.89714 1.95311 9.92686C1.95311 9.93828 1.91718 9.904 1.87343 9.85371C1.82811 9.80114 1.7828 9.76 1.77186 9.76C1.73905 9.76 1.7328 9.79428 1.7578 9.84229C1.80468 9.93371 1.77811 9.91771 1.67968 9.79428C1.62343 9.72571 1.56718 9.66857 1.55468 9.66857C1.52499 9.66857 1.52343 9.76 1.55311 9.81714C1.57186 9.856 1.57186 9.86514 1.54218 9.89486C1.51405 9.92457 1.50936 9.92457 1.50155 9.89486C1.48905 9.83771 1.40936 9.73714 1.37655 9.73714C1.33593 9.73714 1.3328 9.79657 1.37186 9.85828C1.39843 9.904 1.39843 9.904 1.34686 9.86057C1.31874 9.83771 1.25311 9.76457 1.20155 9.696C1.0953 9.56114 1.05468 9.552 1.05468 9.65714C1.05468 9.696 1.04843 9.73943 1.04061 9.75543C1.0328 9.776 1.03905 9.81028 1.06093 9.85371C1.09999 9.93143 1.09999 9.93371 1.06874 9.952C1.05468 9.95886 1.02343 9.94514 0.998426 9.91771C0.942176 9.86057 0.896863 9.86971 0.901551 9.93828C0.904676 9.97257 0.898426 9.984 0.882801 9.97486C0.870301 9.96571 0.859363 9.952 0.859363 9.94057C0.859363 9.91771 0.703113 9.78286 0.674988 9.78286C0.664051 9.78286 0.651551 9.80114 0.645301 9.82171C0.640613 9.84457 0.624988 9.88114 0.612488 9.904C0.590613 9.94057 0.592176 9.94971 0.642176 10.0114C0.707801 10.0937 0.681238 10.0983 0.578113 10.0229C0.481238 9.94971 0.449988 9.94971 0.456238 10.016C0.459363 10.048 0.484363 10.0869 0.523426 10.1189C0.570301 10.1577 0.579676 10.1714 0.559363 10.1829C0.545301 10.192 0.507801 10.1874 0.473426 10.1737C0.393738 10.1394 0.390613 10.1417 0.390613 10.1966C0.390613 10.2286 0.410926 10.256 0.460926 10.288C0.498426 10.3131 0.532801 10.3406 0.537488 10.3497C0.540613 10.3589 0.423426 10.3657 0.276551 10.3657C-0.0187617 10.3657 -0.0703242 10.3909 0.0968633 10.4526C0.151551 10.4731 0.231238 10.512 0.273426 10.5417L0.351551 10.5943L0.268738 10.6057C0.187488 10.6171 0.187488 10.6171 0.210926 10.6674C0.223426 10.6926 0.326551 10.7817 0.440613 10.864C0.554676 10.9463 0.662488 11.0286 0.679676 11.0469C0.732801 11.1063 0.698426 11.1086 0.617176 11.0537C0.542176 11.0034 0.529676 11.0034 0.312488 11.0194C0.187488 11.0286 0.0703008 11.0377 0.0499883 11.0377C0.0249883 11.04 0.0156133 11.0514 0.0187383 11.0789C0.0249883 11.1314 0.140613 11.1726 0.335926 11.1931C0.421863 11.2023 0.476551 11.2137 0.457801 11.2183C0.410926 11.2274 0.410926 11.2983 0.457801 11.344C0.490613 11.3783 0.489051 11.3783 0.437488 11.3554C0.407801 11.344 0.354676 11.3257 0.320301 11.3166C0.285926 11.3051 0.228113 11.2846 0.192176 11.2686C0.126551 11.2389 0.0781133 11.248 0.0781133 11.2914C0.0781133 11.3051 0.0906133 11.3211 0.106238 11.3303C0.120301 11.3371 0.165613 11.3851 0.204676 11.4331C0.245301 11.4811 0.284363 11.52 0.290613 11.5223C0.298426 11.5223 0.329676 11.5657 0.359363 11.6183C0.414051 11.7097 0.406238 11.712 0.326551 11.6274C0.281238 11.5817 0.170301 11.5794 0.160926 11.6274C0.156238 11.6434 0.178113 11.6709 0.206238 11.6914C0.348426 11.7897 0.428113 11.8629 0.395301 11.8629C0.374988 11.8629 0.359363 11.8697 0.359363 11.8811C0.359363 11.904 0.448426 12.0457 0.464051 12.0457C0.470301 12.0457 0.489051 12.0777 0.503113 12.1143C0.523426 12.1669 0.524988 12.1874 0.510926 12.192C0.426551 12.2286 0.426551 12.2286 0.459363 12.2651C0.495301 12.3017 0.587488 12.3086 0.601551 12.2743C0.606238 12.2606 0.634363 12.2514 0.660926 12.2537L0.710926 12.256L0.659363 12.288C0.593738 12.3291 0.604676 12.3566 0.698426 12.3771C0.740613 12.384 0.801551 12.4046 0.835926 12.4229C0.870301 12.4389 0.965613 12.4594 1.04686 12.4709C1.17811 12.4869 1.18749 12.4914 1.12655 12.5029C1.08905 12.512 0.999988 12.5074 0.929676 12.496C0.859363 12.4823 0.790613 12.4777 0.776551 12.4869C0.740613 12.5074 0.743738 12.5714 0.779676 12.5714C0.796863 12.5714 0.829676 12.5829 0.854676 12.5966L0.898426 12.624L0.859363 12.6377C0.807801 12.6583 0.799988 12.7223 0.846863 12.7383C0.867176 12.7474 0.924988 12.7589 0.973426 12.768C1.1328 12.7954 1.08436 12.8206 0.901551 12.8069C0.704676 12.7909 0.573426 12.8114 0.582801 12.8526C0.585926 12.8686 0.620301 12.8846 0.659363 12.8914C0.698426 12.8983 0.742176 12.9166 0.754676 12.9349C0.770301 12.9531 0.890613 12.9737 1.09686 12.9966C1.27186 13.0149 1.46718 13.04 1.53124 13.0537C1.6703 13.0811 1.78905 13.072 2.03124 13.0103C2.27186 12.9486 2.28749 12.9417 2.4078 12.8663C2.54843 12.7771 2.66561 12.7406 2.6953 12.7771C2.74218 12.8343 2.92655 12.7977 3.04374 12.7109C3.07655 12.6857 3.12968 12.6583 3.16405 12.6491C3.19686 12.64 3.2703 12.5897 3.32655 12.5371C3.46718 12.4046 3.52343 12.3657 3.56874 12.3657C3.59374 12.3657 3.64686 12.3223 3.70624 12.2491C3.76093 12.1874 3.84061 12.1006 3.8828 12.0594C3.92655 12.016 3.97499 11.9589 3.99218 11.9314C4.00936 11.904 4.03593 11.872 4.05155 11.8583C4.07811 11.8377 4.07968 11.84 4.05468 11.8926C4.03749 11.9337 4.03436 11.9543 4.04686 11.9657C4.05936 11.9771 4.05468 11.9977 4.0328 12.032C3.9953 12.0891 4.00311 12.1143 4.0578 12.1143C4.08436 12.1143 4.09374 12.128 4.09374 12.1623C4.09374 12.2057 4.09999 12.2103 4.1453 12.1966C4.17186 12.1897 4.21405 12.1623 4.23749 12.1371C4.28905 12.0823 4.29686 12.08 4.29686 12.1257C4.29686 12.176 4.33593 12.1669 4.38593 12.1051C4.48124 11.9886 4.61405 11.8811 4.66718 11.8766C4.70468 11.8743 4.75936 11.8354 4.85468 11.7371C5.01093 11.5771 5.33905 11.1451 5.41405 11.0011C5.50624 10.8251 5.60936 10.416 5.60936 10.2263C5.60936 10.0914 5.62655 10.0869 5.66249 10.2103C5.70624 10.3566 5.95311 11.0423 6.05936 11.3143C6.17968 11.6206 6.27655 11.824 6.4203 12.0777C6.49061 12.2011 6.55155 12.3269 6.55624 12.3589C6.57186 12.4434 6.54061 12.6149 6.47343 12.8183C6.36561 13.1406 6.02811 13.5817 5.62655 13.92C5.48905 14.0366 5.40155 14.1486 5.37499 14.24C5.34061 14.3589 5.40311 14.6149 5.52186 14.8411C5.55311 14.9006 5.62186 15.0583 5.67655 15.1931C5.92968 15.8194 5.98749 15.9634 6.10624 16.2469C6.32968 16.7794 6.48905 17.2594 6.5328 17.52C6.54218 17.5817 6.56405 17.6869 6.58124 17.7486C6.6078 17.8583 6.60936 17.8697 6.58593 17.952C6.55311 18.0663 6.56718 18.1531 6.63593 18.2514C6.69843 18.3406 6.69686 18.4046 6.62811 18.4411C6.60468 18.4526 6.55155 18.4823 6.50936 18.5029C6.44374 18.5371 6.42968 18.5577 6.40311 18.6469C6.36249 18.7794 6.34843 19.0903 6.37343 19.3006C6.39218 19.4606 6.48905 19.8126 6.54686 19.9314C6.5703 19.9794 6.59374 20 6.62343 20C6.66249 20 6.68905 19.9589 6.82811 19.6869C7.00311 19.3417 7.00311 19.3417 7.08593 18.9943C7.1453 18.7451 7.19686 18.5509 7.29218 18.2194C7.38749 17.8857 7.37968 17.8263 7.14218 17.264C7.07343 17.0994 6.97811 16.848 6.92811 16.704C6.87968 16.5623 6.81249 16.3771 6.77968 16.2949C6.56093 15.7417 6.44999 15.3303 6.47655 15.1566C6.48905 15.0743 6.62186 14.7657 6.69374 14.6537C6.75624 14.5577 6.87655 14.4366 7.05468 14.2971C7.21718 14.1691 7.35155 14.0411 7.45468 13.9154C7.4953 13.8674 7.5328 13.8286 7.53749 13.8286C7.5578 13.8286 7.40311 14.2377 7.28749 14.4937C7.22499 14.6331 7.16874 14.784 7.16249 14.8251C7.13749 15.0194 7.17655 15.0926 7.48436 15.4514C8.04218 16.1006 8.72343 17.0171 8.9703 17.4446C9.11405 17.696 9.13905 17.7554 9.16405 17.8789C9.20311 18.0869 9.33593 18.272 9.36561 18.16C9.37811 18.1097 9.40311 18.1189 9.4453 18.1851C9.49374 18.2629 9.4953 18.3543 9.44686 18.4389C9.39061 18.5394 9.37499 18.5943 9.37499 18.704C9.37499 18.8617 9.45155 19.0606 9.56718 19.2023C9.68749 19.3486 9.81249 19.4743 9.91405 19.5474C10.0297 19.632 10.0687 19.6411 10.1109 19.5909L10.1453 19.5497L10.1266 19.1406C10.1172 18.9166 10.1 18.6994 10.0922 18.6629C10.0828 18.624 10.0516 18.48 10.0234 18.3429C9.9953 18.2034 9.9578 18.0343 9.94061 17.9657C9.92343 17.8971 9.89686 17.7531 9.8828 17.6457C9.8703 17.5383 9.85155 17.4126 9.84218 17.3669C9.82655 17.2777 9.81874 17.2663 9.31249 16.6034C8.6953 15.7966 8.51561 15.52 8.43593 15.2571C8.39686 15.1291 8.40155 14.9943 8.45468 14.7177C8.5328 14.3063 8.61405 14.0777 8.80468 13.7349C8.91405 13.5383 9.02343 13.232 9.15311 12.7634C9.1953 12.6103 9.26405 12.4114 9.30624 12.3223C9.4203 12.08 9.43436 12.032 9.47186 11.7874C9.49061 11.6663 9.51405 11.5657 9.52343 11.5657C9.5328 11.5657 9.58593 11.5931 9.64218 11.6251C9.90155 11.7806 10.3125 11.9771 10.6219 12.0937C11.625 12.4709 11.6297 12.4731 12.3891 12.5029C12.7234 12.5166 13.0125 12.5349 13.0297 12.544C13.0828 12.5714 13.2734 12.9623 13.3172 13.1337C13.3734 13.3463 13.3859 13.4423 13.4141 13.8537C13.4281 14.048 13.4531 14.3337 13.4703 14.4914C13.5578 15.296 13.5812 15.5749 13.5891 15.9543C13.5953 16.2309 13.5922 16.3977 13.5781 16.4914C13.5594 16.6194 13.55 16.6423 13.4234 16.8251C13.2766 17.04 12.8609 17.5017 12.7969 17.5223C12.7203 17.5474 12.6766 17.5794 12.5953 17.6777C12.5156 17.7737 12.4297 17.8286 12.3625 17.8286C12.3047 17.8286 12.25 17.8789 12.2406 17.9406C12.2203 18.0777 12.1984 18.1531 12.1766 18.1646C12.1625 18.1737 12.1078 18.1463 12.0531 18.1051C11.9125 18 11.8656 17.984 11.8062 18.0206C11.6891 18.0914 11.5594 18.4 11.5297 18.6789C11.5094 18.8663 11.5187 19.2914 11.5453 19.3897C11.5797 19.52 11.6547 19.5109 11.7891 19.36C11.8312 19.312 11.9062 19.2434 11.9531 19.2069C12 19.1703 12.075 19.1017 12.1172 19.0537C12.2234 18.9349 12.4719 18.7589 12.6031 18.7109C12.8266 18.6286 12.8219 18.6309 13.1719 18.1371C13.5734 17.568 13.7437 17.3554 13.8937 17.2434C14.0609 17.1154 14.1531 16.9669 14.2578 16.656C14.3156 16.4869 14.35 16.3543 14.3578 16.2629C14.3656 16.1874 14.3766 15.7966 14.3828 15.3943C14.3891 14.8891 14.4016 14.5531 14.4234 14.3086C14.4391 14.1143 14.4625 13.7966 14.475 13.6046C14.5 13.216 14.5187 13.1429 14.6359 12.976L14.6969 12.8914L14.8156 12.9989C14.8828 13.0606 15.0422 13.2549 15.1828 13.4446C15.3187 13.6297 15.5469 13.92 15.6906 14.0869C15.8344 14.256 15.9812 14.432 16.0172 14.48C16.0812 14.5646 16.1234 14.6811 16.125 14.7794C16.125 14.8046 16.1391 14.9006 16.1547 14.992C16.1734 15.0926 16.1812 15.1931 16.1765 15.2411C16.1656 15.3371 16.0219 15.7531 15.9047 16.0251C15.7344 16.4251 15.5062 16.8137 15.3875 16.9074L15.3047 16.9714L15.3 17.1474C15.2953 17.3143 15.2922 17.3257 15.2328 17.424L15.1703 17.5291L15.0328 17.5154C14.8297 17.4971 14.7891 17.5131 14.7344 17.6366C14.6484 17.8377 14.6359 18.224 14.7047 18.5851C14.7578 18.8663 14.8187 18.9943 14.9 18.9943C14.95 18.9943 15.0047 18.9211 15.1 18.72C15.1484 18.6194 15.2078 18.5166 15.2328 18.4891C15.2578 18.4617 15.2969 18.3909 15.3187 18.3337C15.3406 18.2743 15.3953 18.1737 15.4406 18.112C15.5359 17.9794 15.7625 17.728 15.8344 17.6754C15.9219 17.6114 15.9672 17.5269 16.0328 17.3051C16.1594 16.8731 16.4547 16.0206 16.5484 15.8194C16.6 15.7051 16.6656 15.584 16.6953 15.552C16.7891 15.4491 16.8047 15.344 16.8047 14.8343C16.8031 14.4046 16.8031 14.384 16.7641 14.2629C16.7406 14.1943 16.6781 14.0594 16.625 13.9657C16.4766 13.7097 16.2578 13.2709 16.1687 13.0514C16.125 12.944 16.0453 12.7543 15.9906 12.6286C15.9359 12.5029 15.8609 12.2834 15.8219 12.1417C15.7828 12 15.7437 11.8674 15.7359 11.8469C15.7266 11.8194 15.7422 11.7737 15.8031 11.6686C15.9406 11.4354 16.0062 11.2914 16.1969 10.8297C16.4141 10.3017 16.4625 10.1669 16.4922 9.99543C16.525 9.81028 16.5219 9.62514 16.4766 9.24343C16.4547 9.06057 16.4375 8.88229 16.4375 8.84571C16.4375 8.80914 16.475 8.62628 16.5219 8.44114C16.6328 7.99314 16.6516 7.904 16.7812 7.23886C16.9141 6.55771 16.9578 6.28571 17.0078 5.80343C17.05 5.40343 17.0719 5.31657 17.1844 5.12457C17.2469 5.01714 17.2594 5.00571 17.3187 5.00571C17.3531 5.00571 17.4219 4.98971 17.4687 4.97143C17.5156 4.95314 17.5969 4.93714 17.6484 4.93714C17.7344 4.93714 17.7625 4.95086 17.9453 5.088C18.0953 5.19771 18.1672 5.26857 18.2219 5.35086L18.2969 5.46286H18.4047C18.5203 5.46286 18.5016 5.45143 18.8047 5.69371C18.9265 5.79428 18.9281 5.79657 18.9625 5.936C19.0234 6.19657 19.1203 6.31543 19.2937 6.34743C19.4109 6.368 19.4953 6.32 19.5859 6.18743C19.6297 6.12114 19.6922 6.03886 19.7234 6.00457C19.8062 5.91314 19.8578 5.78743 19.875 5.63657C19.8844 5.55657 19.9094 5.46057 19.9391 5.392C19.9656 5.33028 19.9906 5.24114 19.9953 5.19086C20.0078 5.06057 19.9516 4.83657 19.8719 4.69257C19.8344 4.62628 19.7312 4.44343 19.6406 4.28343C19.55 4.12343 19.4281 3.904 19.3687 3.79657C19.3109 3.68914 19.2219 3.53828 19.1719 3.46286C19.0609 3.29371 18.9016 3.01028 18.7437 2.70171C18.6109 2.44343 18.3516 1.99086 18.1641 1.69143C18.0984 1.584 18.0344 1.46514 18.0219 1.42628C18.0109 1.38514 17.9828 1.32114 17.9594 1.28228L17.9187 1.20914L17.95 1.10171C17.9812 0.994284 17.9906 0.93257 18.0406 0.491426C18.0844 0.0914268 18.0859 0.0388546 18.0547 0.0502834C18.0375 0.0548553 17.9984 0.139427 17.9516 0.274284C17.9094 0.393141 17.8469 0.537142 17.8109 0.594284C17.7453 0.697142 17.7453 0.697142 17.7328 0.639997C17.7266 0.607998 17.7219 0.45257 17.7203 0.290283C17.7187 0.0205688 17.7172 -1.90735e-06 17.6891 -1.90735e-06C17.6719 -1.90735e-06 17.6312 0.0457115 17.5984 0.100569Z" fill="black"/>
</g>
<defs>
<clipPath id="clip0_38_104">
<rect width="20" height="20" fill="white"/>
</clipPath>
</defs>
</svg>
