<svg width="100" height="100" viewBox="0 0 100 100" fill="none" xmlns="http://www.w3.org/2000/svg">
<circle cx="50" cy="50" r="50" fill="white"/>
<path d="M65.0816 20.4623C65.1168 20.7201 65.108 21.1735 65.0639 21.4579C64.9758 22.1336 65.0551 22.4803 65.4431 23.067C65.6106 23.3248 65.734 23.5559 65.7164 23.5737C65.6987 23.5915 65.4519 23.5826 65.1697 23.5559L64.6584 23.5026L63.6885 22.5336C63.1507 21.9913 62.5776 21.369 62.4101 21.1379C61.9604 20.5156 61.6871 20.6134 62.0222 21.2712C62.1103 21.4224 62.2073 21.8846 62.2426 22.2936C62.3308 23.1292 62.3837 23.2537 62.8686 23.7871C63.283 24.2404 63.2477 24.3738 62.6305 24.8005C62.1985 25.0939 62.0486 25.2806 62.2955 25.1828C62.4366 25.1294 62.4366 25.1472 62.2779 25.3339C62.1809 25.4495 62.1544 25.5117 62.2161 25.4761C62.5159 25.2983 62.225 25.6362 61.3168 26.5251C60.4616 27.3697 60.3029 27.5652 60.25 27.8675C60.1442 28.4276 59.3683 29.3965 57.5697 31.2101C55.7182 33.0681 54.8542 34.2059 54.9512 34.6415C54.9776 34.7838 55.0834 35.2905 55.1716 35.7794C55.3744 36.8373 55.4185 36.9618 55.6389 37.2196L55.8152 37.4063L55.4361 37.6908C54.4927 38.3753 53.2231 38.8375 51.6978 39.0598C50.3312 39.2554 49.4055 39.2376 48.0389 38.9798C47.3953 38.8553 46.7693 38.7575 46.637 38.7575C46.5136 38.7575 46.1345 38.7042 45.7906 38.6331C44.1772 38.2953 40.9855 37.8419 40.2185 37.8508C37.8908 37.8597 34.8491 39.122 32.6978 40.98C32.4333 41.2022 32.1159 41.4689 31.9925 41.5667C31.534 41.9223 30.7758 42.7491 30.5994 43.0958C30.3437 43.5847 30.2027 43.8425 30.0881 44.0025C29.9294 44.2337 29.515 45.3005 29.4621 45.6205C29.4356 45.7805 29.3827 45.985 29.3386 46.0739C29.2857 46.1539 29.2769 46.2606 29.2946 46.305C29.321 46.3495 29.2946 46.5184 29.224 46.6784C29.1623 46.8473 29.127 47.0251 29.1447 47.0873C29.1623 47.1406 29.1359 47.2118 29.0918 47.2473C28.9772 47.3184 28.9683 47.4696 29.0741 47.4696C29.1182 47.4696 29.1799 47.3629 29.2064 47.2384C29.2417 47.1051 29.2857 47.0251 29.3122 47.0429C29.3298 47.0695 29.3034 47.2029 29.2505 47.3451C29.1094 47.7096 29.0477 48.6252 29.0653 50.2254C29.0741 50.9811 29.083 51.9678 29.083 52.4212C29.083 53.3102 29.2152 54.0125 29.6208 55.2393C29.8676 56.0127 29.8765 56.0483 29.7707 56.7683C29.6825 57.4084 29.6825 57.5951 29.8147 58.1551C29.9029 58.5107 29.9646 58.9641 29.9646 59.1597C29.9646 59.4086 29.9911 59.4797 30.044 59.3908C30.1321 59.2486 30.1321 59.2397 30.282 60.0042C30.3085 60.1731 30.3702 60.6532 30.4055 61.071C30.4407 61.4888 30.5201 61.9867 30.5818 62.1822C30.6435 62.3778 30.6788 62.7067 30.6788 62.9023C30.67 63.1068 30.7229 63.4268 30.7934 63.6135C30.8639 63.8091 30.9433 64.0402 30.9697 64.138C31.0138 64.3069 30.9874 64.0224 30.8904 62.9379C30.8639 62.609 30.8727 62.5112 30.9256 62.6267C30.9785 62.7423 30.9874 62.5378 30.9697 62.0489C30.9345 61.4355 30.9521 61.3377 31.0314 61.5155C31.0932 61.6577 31.1108 62.04 31.0843 62.5378C31.0491 63.0979 31.0755 63.4357 31.1549 63.6491C31.2695 63.9513 31.2783 63.9247 31.2871 63.1157C31.2959 62.6534 31.2959 62.1467 31.2871 62.0044C31.2871 61.8533 31.3224 61.64 31.3753 61.5155L31.4635 61.2933L31.437 61.5333C31.4106 61.6755 31.4282 61.7822 31.4635 61.7822C31.4987 61.7822 31.5516 61.4888 31.5869 61.1332C31.6133 60.7865 31.6839 60.1554 31.7368 59.7375C31.7897 59.3197 31.8514 58.7774 31.8602 58.5374C31.8778 58.2885 31.9219 57.8885 31.966 57.6484C32.0013 57.3995 32.0366 56.9906 32.0366 56.7417C32.0366 56.4839 32.063 56.3061 32.0983 56.3416C32.2041 56.4483 32.5215 58.4041 32.5832 59.293C32.6361 60.1109 32.6185 60.1998 32.2217 61.6133C32.0013 62.4223 31.8161 63.1423 31.8161 63.2224C31.8161 63.2935 31.9219 63.6757 32.0454 64.058C32.1776 64.4492 32.3099 65.0981 32.354 65.5159C32.398 65.9338 32.4862 66.4938 32.5656 66.7605C33.0946 68.6363 33.2797 70.0942 33.1827 71.7388C33.0769 73.4901 33.0946 73.9968 33.2621 74.2369C33.3414 74.3524 33.4031 74.5569 33.4031 74.6991C33.4031 75.0014 33.5442 75.2947 33.7734 75.4548C34.0115 75.6326 33.985 76.2726 33.6941 76.9127C33.4737 77.4105 33.4649 77.4728 33.5707 77.8728C33.6324 78.1128 33.6588 78.3884 33.6236 78.4951C33.5266 78.7973 33.9145 78.8685 35.5809 78.8329C36.4096 78.8151 37.1238 78.7796 37.1591 78.744C37.1943 78.7084 37.0356 78.2906 36.8064 77.8195C36.586 77.3483 36.4008 76.886 36.4008 76.7971C36.4008 76.6993 36.2774 76.3704 36.1275 76.0682C35.6867 75.197 35.431 74.3435 35.431 73.7479C35.431 73.3479 35.3604 73.0456 35.1665 72.5922C34.8932 71.9522 34.8932 71.9522 34.6375 68.5829C34.5581 67.6495 34.5581 67.2761 34.6375 67.0717C34.6904 66.9205 34.7962 66.5205 34.8667 66.1827C35.1048 65.0359 35.1488 64.8492 35.2458 64.6003C35.3957 64.218 35.3604 63.7735 35.1577 63.2846C35.0166 62.9557 34.9813 62.7512 35.0254 62.4845C35.1312 61.8089 35.863 58.893 36.0482 58.4218C36.1451 58.164 36.2245 57.8796 36.2245 57.7729C36.2245 57.5684 37.0004 55.1059 37.1062 54.9993C37.1855 54.9104 37.8556 55.9505 38.1818 56.6794C38.6491 57.7284 38.7284 58.2085 38.6138 59.5242C38.4904 60.9643 38.2876 61.7911 37.8203 62.7779C37.6175 63.1957 37.4588 63.6224 37.4588 63.7291C37.4588 63.8446 37.5558 64.1736 37.6792 64.4758C37.7939 64.7781 37.9878 65.3826 38.1113 65.8271C38.7901 68.2984 39.0546 69.303 39.2662 70.1831C39.3897 70.7165 39.5925 71.5432 39.7071 72.0055C39.8217 72.4678 39.9628 73.2056 40.0245 73.6412C40.1127 74.2902 40.1832 74.4947 40.4124 74.7969C40.6505 75.1169 40.8092 75.2325 41.3382 75.4725C41.5674 75.5792 41.7261 76.0326 41.7702 76.7616C41.8055 77.2238 41.876 77.5617 41.973 77.7128C42.0876 77.8906 42.0964 77.9617 42.0171 77.9884C41.9642 78.0061 41.9465 78.0595 41.9818 78.1039C42.1052 78.2284 43.5071 78.2906 44.5915 78.2195C45.8788 78.1306 45.9758 78.0328 45.4379 77.2861C45.2704 77.046 44.9971 76.646 44.8296 76.3971C44.6621 76.1482 44.3094 75.7748 44.0537 75.5703C43.1809 74.868 42.6607 74.0679 42.5284 73.2501C42.4932 73.0278 42.405 72.7434 42.3345 72.6011C42.0611 72.0588 41.3911 69.9431 41.0825 68.6274C40.8709 67.7562 40.8621 67.3028 40.9855 65.5159C41.1707 63.0357 41.2236 62.6267 41.4528 62.1734C42.0171 61.0266 42.5725 58.9463 42.5725 57.9507C42.5725 57.3817 43.0045 55.8082 43.2161 55.586C43.3043 55.4971 43.4718 55.5504 44.0185 55.8349C44.9795 56.3416 45.4732 56.4928 47.1484 56.8306L48.612 57.115L52.2268 57.0884C54.2106 57.0795 55.9739 57.035 56.1502 56.9906C56.3178 56.9461 56.644 56.8839 56.8732 56.8483L57.2788 56.795L57.4198 57.3995C57.6491 58.4396 57.8078 59.4797 57.8695 60.3598C57.8959 60.8221 57.9577 61.6044 58.0106 62.0933C58.0811 62.849 58.0723 63.1512 57.9224 64.138C57.8166 64.7692 57.6755 65.5159 57.605 65.7826C57.5345 66.0493 57.4727 66.3782 57.4727 66.5205C57.4727 67.0183 56.3618 70.1653 55.7094 71.5166C55.1011 72.7789 55.057 72.8945 55.0217 73.579C54.9864 74.2546 55.0041 74.3524 55.2598 74.9036C55.5948 75.6148 55.5772 75.757 55.0834 76.6993C54.7308 77.375 54.669 77.6683 54.8366 77.9706C54.8983 78.1039 54.8983 78.1839 54.8277 78.2728C54.6779 78.4506 54.7748 78.5484 55.2509 78.7173C56.0533 79.0018 58.3368 79.0818 58.7159 78.8418C58.7953 78.7973 58.7159 78.5395 58.3809 77.8106C57.2876 75.4725 57.1818 75.0636 57.4551 74.2191C57.5521 73.9079 57.6755 73.3212 57.7284 72.9212C57.8254 72.1655 58.3456 70.3964 58.566 70.0942C58.6366 69.9964 58.7247 69.9431 58.7512 69.9786C58.8482 70.0764 58.6366 73.1167 58.4779 73.9613C58.3192 74.8058 58.3456 75.277 58.5837 75.7837C58.7688 76.1926 59.6064 77.0727 59.8004 77.0727C60.1266 77.0727 60.2324 77.8283 60.012 78.584C59.9502 78.8062 59.9062 79.1263 59.9238 79.3129C59.9679 79.8374 60.3117 79.9263 62.5071 79.9797C63.7943 80.0152 64.341 80.0064 64.385 79.9352C64.4644 79.8019 64.2616 79.4107 63.6797 78.5662C63.4152 78.1839 63.2036 77.8461 63.2036 77.8017C63.2036 77.7572 62.8421 77.3839 62.4101 76.966C61.5196 76.1126 61.3168 75.7481 61.1758 74.7969C61.1317 74.4591 61.0082 73.9435 60.9201 73.6412C60.7702 73.1612 60.7261 72.8234 60.6027 71.1788C60.5586 70.6276 60.7878 69.2141 60.9553 68.9563C61.2551 68.4851 61.3521 67.7295 61.3874 65.3381C61.4138 63.0001 61.4226 62.9823 61.6607 62.4489C62.0662 61.5511 63.0714 59.9064 63.7238 59.1064C64.4379 58.2174 64.579 57.9418 64.9581 56.8039C65.108 56.3416 65.2667 55.9149 65.302 55.8705C65.3372 55.8171 65.6106 55.5682 65.9192 55.3015C66.2189 55.0437 66.5804 54.6437 66.7038 54.4125C66.8361 54.1903 67.1711 53.6836 67.4444 53.2924C67.7266 52.9013 68.0881 52.2968 68.2468 51.9589L68.5289 51.3366L68.5994 49.132C68.6788 46.4828 68.811 45.5938 69.2959 44.5004C69.4899 44.0648 69.7192 43.3891 69.8161 43.0158C69.9131 42.6335 70.1335 41.9134 70.3011 41.4067C70.8477 39.7976 70.883 39.5487 70.9535 36.7129C71.0328 33.9037 71.024 33.557 70.8212 31.5123C70.4774 27.9564 70.3363 27.3697 69.5957 26.4896C69.3312 26.1784 69.1108 25.894 69.1108 25.8584C69.1108 25.8228 68.8816 25.4761 68.5994 25.0939C68.1586 24.4983 66.8978 22.4447 66.1748 21.1557C65.8751 20.6134 65.3372 20 65.1697 20C65.0551 20 65.0375 20.08 65.0816 20.4623ZM31.4635 60.9377C31.4635 61.1066 31.4282 61.2488 31.3753 61.2488C31.2783 61.2488 31.2519 60.7776 31.3488 60.6888C31.4458 60.5821 31.4635 60.6176 31.4635 60.9377ZM31.2871 61.391C31.2871 61.4622 31.2519 61.4977 31.199 61.4711C31.1549 61.4444 31.1108 61.3555 31.1108 61.2844C31.1108 61.2133 31.1549 61.1777 31.199 61.2044C31.2519 61.231 31.2871 61.3199 31.2871 61.391ZM30.67 61.5155C30.67 61.6577 30.6347 61.7822 30.5818 61.7822C30.4848 61.7822 30.4584 61.3999 30.5553 61.311C30.6523 61.2044 30.67 61.2399 30.67 61.5155Z" fill="black"/>
</svg>
