<svg width="35" height="35" viewBox="0 0 35 35" fill="none" xmlns="http://www.w3.org/2000/svg">
<path fill-rule="evenodd" clip-rule="evenodd" d="M23.5512 13.7407C24.1598 14.5152 24.9383 14.5274 25.2637 14.5274C25.2637 14.5307 33.2084 14.5252 33.2084 14.5252C33.5688 14.5252 33.921 14.2131 33.9941 13.827L34.9868 8.80009C35.0589 8.41281 34.8282 8.10077 34.4678 8.10077L27.7692 8.09303C27.4901 8.09303 27.2563 7.96467 27.1163 7.76218L21.8089 0.959347C21.3702 0.366256 20.7225 0 19.9079 0C18.9636 0 18.3798 0.407196 17.801 0.933896C17.8505 0.895168 10.3537 7.65153 10.3537 7.65153C10.0314 7.95361 9.62981 8.10299 9.21172 8.10299L4.23588 8.10631C3.87649 8.10631 3.48312 8.43494 3.41001 8.82111L2.43583 13.827C2.36375 14.2131 2.61914 14.5152 2.97853 14.5152H11.8531C12.8159 14.5152 13.3081 14.0295 13.409 13.9376L18.7721 9.12208C18.9296 8.96164 19.1243 8.89082 19.358 8.89082C19.6155 8.89082 19.8482 9.00701 20.0088 9.19511L23.5512 13.7407Z" fill="#00AEEF"/>
<path fill-rule="evenodd" clip-rule="evenodd" d="M11.4484 21.2603C10.8398 20.4847 10.0614 20.4725 9.73697 20.4725C9.73697 20.4692 1.79128 20.4747 1.79128 20.4747C1.43086 20.4747 1.07865 20.7879 1.00657 21.174L0.0128475 26.1998C-0.0582065 26.5871 0.172459 26.9002 0.531848 26.9002L7.2305 26.9069C7.50956 26.9069 7.74332 27.0363 7.88337 27.2377L13.1918 34.0405C13.6305 34.6347 14.2772 34.9999 15.0917 34.9999C16.036 34.9999 16.6199 34.5938 17.1997 34.0671C17.1492 34.1047 24.647 27.3495 24.647 27.3495C24.9693 27.0474 25.3699 26.898 25.7879 26.898L30.7648 26.8936C31.1242 26.8936 31.5165 26.5661 31.5897 26.1799L32.5638 21.174C32.6359 20.7879 32.3805 20.4847 32.0211 20.4847H23.1476C22.1848 20.4847 21.6926 20.9715 21.5906 21.0623L16.2286 25.8778C16.07 26.0383 15.8764 26.1102 15.6416 26.1102C15.3842 26.1102 15.1525 25.9929 14.9908 25.8048L11.4484 21.2603Z" fill="#0DB14B"/>
</svg>
