<svg width="35" height="36" viewBox="0 0 35 36" fill="none" xmlns="http://www.w3.org/2000/svg">
<path d="M17.3584 10.2162C17.2012 10.5509 12.2898 20.8335 7.23684 20.8335C3.81579 20.8335 0.952117 17.5807 0.131576 13.1788V13.1826C0.116956 13.1483 0.0959477 13.1203 0.0676216 13.1203C0.0328994 13.1203 0.000913743 13.1597 0 13.2081C0.932931 25.4784 8.38451 35.0369 17.4488 35.0369C27.1373 35.0369 35 24.0951 35 10.5929C35 10.4669 34.9918 10.3435 34.9918 10.2162H34.9735C34.8648 4.44376 32.3045 0.0405834 27.6023 0.0405834C21.9198 0.0405834 17.3584 10.2162 17.3584 10.2162" fill="url(#paint0_linear_33_614)"/>
<path d="M15.8472 8.37252C15.8472 8.34325 15.8408 8.31271 15.8253 8.2898C15.3967 7.46007 11.4019 0.0370429 7.29733 0.0370429C3.86166 0.0370429 1.0784 3.91718 1.0784 8.69703C1.0784 13.4807 3.86166 17.3608 7.29733 17.3608C11.4165 17.3608 15.4223 9.29006 15.8308 8.44379C15.8408 8.42088 15.8472 8.39925 15.8472 8.37252Z" fill="#F36F21"/>
<defs>
<linearGradient id="paint0_linear_33_614" x1="25.9252" y1="-12.7678" x2="44.9808" y2="0.91447" gradientUnits="userSpaceOnUse">
<stop stop-color="#FDB913"/>
<stop offset="1" stop-color="#F37021"/>
</linearGradient>
</defs>
</svg>
